<svg width="150" height="24" viewBox="0 0 150 24" fill="none" xmlns="http://www.w3.org/2000/svg">
<path fill-rule="evenodd" clip-rule="evenodd" d="M105.857 0V19.4805H110.948V0H105.857ZM0.750977 0.909092V19.4805H6.62111V13.4286H8.41331C10.8029 13.4286 12.6298 12.9091 13.8938 11.8701C15.1579 10.8139 15.7899 9.31602 15.7899 7.37662V7.27273C15.7899 3.0303 13.2445 0.909092 8.15357 0.909092H0.750977ZM7.84188 9.48052H6.62111V5.2987H7.86786C9.4263 5.2987 10.2055 5.96537 10.2055 7.2987V7.4026C10.2055 8.78788 9.41764 9.48052 7.84188 9.48052ZM18.4271 17.974C19.8297 19.2035 21.6479 19.8182 23.8817 19.8182C26.0115 19.8182 27.6739 19.3939 28.8687 18.5455C30.0635 17.6797 30.7648 16.4589 30.9726 14.8831H26.1933C26.0029 15.8528 25.2929 16.3377 24.0635 16.3377C23.3362 16.3377 22.7475 16.1212 22.2972 15.6883C21.847 15.2554 21.5873 14.632 21.518 13.8182H30.9466V12.5714C30.9466 10.2511 30.2799 8.49351 28.9466 7.2987C27.6133 6.1039 25.9249 5.50649 23.8817 5.50649C21.7518 5.50649 19.9596 6.1645 18.505 7.48052C17.0678 8.77922 16.3492 10.5022 16.3492 12.6494V12.8571C16.3492 15.039 17.0418 16.7446 18.4271 17.974ZM26.0115 11.1429H21.544C21.6479 10.381 21.899 9.80087 22.2972 9.4026C22.7128 9.00433 23.241 8.8052 23.8817 8.8052C25.2496 8.8052 25.9596 9.58442 26.0115 11.1429ZM32.7002 19.4805V5.89611H37.8171V8.64935C38.631 6.65801 40.0855 5.67965 42.1808 5.71429V10.4935C39.2717 10.3377 37.8171 11.2468 37.8171 13.2208V19.4805H32.7002ZM49.7745 19.8182C51.7832 19.8182 53.3503 19.4286 54.4758 18.6494C55.6013 17.8528 56.1641 16.6494 56.1641 15.039C56.1641 13.619 55.7226 12.6061 54.8394 12C53.9563 11.3766 52.4845 10.9437 50.4239 10.7013C49.6619 10.6147 49.1165 10.5022 48.7875 10.3636C48.4585 10.2078 48.294 9.97403 48.294 9.66234C48.294 9.03896 48.7442 8.72727 49.6446 8.72727C50.5104 8.72727 51.0213 9.15151 51.1771 10H55.7745C55.4974 7.00433 53.4282 5.50649 49.5667 5.50649C47.8005 5.50649 46.3459 5.90476 45.2031 6.7013C44.0775 7.48052 43.5148 8.61472 43.5148 10.1039C43.5148 11.5238 43.9217 12.5455 44.7355 13.1688C45.5494 13.7922 46.9 14.2078 48.7875 14.4156C49.6879 14.5368 50.3113 14.684 50.6576 14.8571C51.0039 15.013 51.1771 15.2468 51.1771 15.5584C51.1771 16.1991 50.7009 16.5195 49.7485 16.5195C49.1944 16.5195 48.7962 16.4069 48.5537 16.1818C48.3113 15.9567 48.1468 15.6017 48.0602 15.1169H43.3849C43.4195 16.6407 43.991 17.8095 45.0992 18.6234C46.2074 19.4199 47.7658 19.8182 49.7745 19.8182ZM64.8737 16.052C66.4322 16.052 67.2114 14.9524 67.2114 12.7532V12.5714C67.2114 10.3896 66.4322 9.2987 64.8737 9.2987C63.2633 9.2987 62.4581 10.3636 62.4581 12.4935V12.7013C62.4581 14.9351 63.2633 16.052 64.8737 16.052ZM64.8478 19.8182C62.6486 19.8182 60.8391 19.2035 59.4192 17.974C57.9993 16.7273 57.2893 15.0216 57.2893 12.8571V12.6494C57.2893 10.4848 57.9993 8.76191 59.4192 7.48052C60.8564 6.18182 62.6746 5.53247 64.8737 5.53247C67.0555 5.53247 68.8564 6.1645 70.2763 7.42857C71.6962 8.69264 72.4062 10.3896 72.4062 12.5195V12.7273C72.4062 14.9091 71.6876 16.6407 70.2504 17.9221C68.8304 19.1861 67.0296 19.8182 64.8478 19.8182ZM74.1978 5.89611V19.4805H79.3147V11.974C79.3147 10.3983 79.99 9.61039 81.3406 9.61039C82.4835 9.61039 83.0549 10.303 83.0549 11.6883V19.4805H88.1718V10.5455C88.1718 8.90043 87.7736 7.65368 86.977 6.80519C86.1978 5.95671 85.1415 5.53247 83.8082 5.53247C81.7129 5.53247 80.2151 6.38095 79.3147 8.07792V5.89611H74.1978ZM94.4551 19.8182C93.1218 19.8182 92.0135 19.4805 91.1304 18.8052C90.2646 18.1126 89.8317 17.0823 89.8317 15.7143C89.8317 14.1558 90.4378 13.0303 91.6499 12.3377C92.8793 11.6277 94.7062 11.2727 97.1304 11.2727H98.2993V11.039C98.2993 10.381 98.1954 9.88745 97.9876 9.55844C97.7798 9.22944 97.3555 9.06494 96.7148 9.06494C95.7451 9.06494 95.2083 9.54978 95.1044 10.5195H90.3252C90.4291 8.89178 91.0698 7.65368 92.2473 6.80519C93.4421 5.93939 95.0352 5.50649 97.0265 5.50649C99.0525 5.50649 100.611 5.93939 101.702 6.80519C102.81 7.65368 103.364 8.95238 103.364 10.7013V19.4805H98.4291V17.9221C97.6499 19.1861 96.3252 19.8182 94.4551 19.8182ZM96.2992 16.3896C96.888 16.3896 97.3642 16.2424 97.7278 15.9481C98.1088 15.6364 98.2993 15.2294 98.2993 14.7273V14.026H97.2083C96.3425 14.026 95.7365 14.1212 95.3902 14.3117C95.0438 14.5022 94.8707 14.8398 94.8707 15.3247C94.8707 16.0346 95.3469 16.3896 96.2992 16.3896ZM113.644 19.4805V0H118.735V19.4805H113.644ZM125.639 18.1299L123.431 24H128.288L135.535 5.89611H130.704L128.314 12.6753L125.743 5.89611H120.21L125.639 18.1299ZM140.376 6.90629V11.1429H141.568V6.90629H142.981V6H138.964V6.90629H140.376ZM143.717 6V11.1429H144.778V7.53207L146.235 11.1429H146.622L148.071 7.53207V11.1429H149.249V6H147.713L146.505 9.2008L145.283 6H143.717Z" fill="#1E2834"/>
</svg>
